<?xml version="1.0" encoding="utf-8"?>
<!-- Generator: Adobe Illustrator 22.1.0, SVG Export Plug-In . SVG Version: 6.00 Build 0)  -->
<svg version="1.1" id="Слой_1" xmlns="http://www.w3.org/2000/svg" xmlns:xlink="http://www.w3.org/1999/xlink" x="0px" y="0px"
	 viewBox="0 0 1024 788.4" style="enable-background:new 0 0 1024 788.4;" xml:space="preserve">
<style type="text/css">
	.st0{fill:#FFFFFF;}
</style>
<g>
	<g>
		<polygon class="st0" points="295.5,383.5 198.8,215.9 1.7,215.9 -1.4,217.7 190.7,550.5 392,550.5 295.5,383.4 		"/>
		<polygon class="st0" points="1013.4,215.9 816.3,215.9 719.6,383.5 719.5,383.4 623.1,550.5 824.3,550.5 1016.4,217.7 		"/>
		<polygon class="st0" points="507.5,16.2 507.5,16.2 507.5,16.2 296.6,381.5 393.7,549.6 507.5,352.5 621.3,549.6 718.4,381.5 		
			"/>
	</g>
	<g>
		<path class="st0" d="M62.2,784.7L37,704.7l-0.2-1.4c0-1.2,0.4-2.1,1.2-2.9c0.8-0.8,1.8-1.2,2.9-1.2h26.6c1.6,0,2.9,0.4,3.9,1.2
			c1,0.8,1.6,1.8,2,2.9l10.6,36l11.2-36c0.3-1.2,1-2.1,2-2.9c1-0.8,2.3-1.2,3.9-1.2h16.1c1.6,0,2.9,0.4,3.9,1.2c1,0.8,1.6,1.8,2,2.9
			l11.2,36l10.6-36c0.3-1.2,1-2.1,2-2.9c1-0.8,2.3-1.2,3.9-1.2h26.6c1.2,0,2.1,0.4,2.9,1.2c0.8,0.8,1.2,1.8,1.2,2.9l-0.2,1.4
			l-25.3,80.1c-0.9,2.9-2.8,4.3-5.7,4.3h-23.2c-2.9,0-4.8-1.4-5.7-4.3l-12.3-34.9l-12.5,34.9c-0.9,2.9-2.8,4.3-5.7,4.3H67.9
			C65.1,789.1,63.2,787.6,62.2,784.7z"/>
		<path class="st0" d="M216.5,779.3c-8.6-7.7-13-19.3-13-35v-1.2c0.2-14.6,4.8-25.9,13.6-33.8c8.8-7.9,20.7-11.8,35.7-11.8
			c10.8,0,20,2.1,27.4,6.3c7.4,4.2,12.9,9.9,16.5,17c3.6,7.1,5.4,15,5.4,23.8v5.2c0,1.3-0.5,2.4-1.4,3.3c-0.9,0.9-2,1.4-3.3,1.4
			h-51.5v0.9c0,3.6,0.5,6.2,1.6,8c1,1.7,2.8,2.6,5.2,2.6c0.9,0,1.7-0.2,2.2-0.6c0.6-0.4,1.5-1.2,2.8-2.5c1-1,1.9-1.7,2.6-2
			c0.7-0.3,1.7-0.4,3.1-0.4h32.7c1,0,1.9,0.3,2.7,1c0.7,0.6,1.1,1.5,1.1,2.5c0,3.2-1.8,7-5.4,11.3c-3.6,4.3-8.9,8-16,11.2
			c-7.1,3.1-15.6,4.7-25.5,4.7C237.3,790.8,225.2,787,216.5,779.3z M259.8,732.7v-0.2c0-7.3-2.3-10.9-6.9-10.9
			c-4.6,0-6.9,3.6-6.9,10.9v0.2H259.8z"/>
		<path class="st0" d="M370.3,780.4v4c0,1.3-0.5,2.4-1.4,3.3c-0.9,0.9-2,1.4-3.3,1.4h-29.4c-1.3,0-2.4-0.5-3.3-1.4
			c-0.9-0.9-1.4-2-1.4-3.3V670.9c0-1.3,0.5-2.4,1.4-3.3c0.9-0.9,2-1.4,3.3-1.4h32c1.3,0,2.4,0.5,3.3,1.4c0.9,0.9,1.4,2,1.4,3.3v34.6
			c6-5.4,13.7-8.1,23-8.1c10.5,0,19.1,3.4,25.9,10.1c6.7,6.7,10.3,16.6,10.8,29.7c0.1,1.7,0.2,4,0.2,6.7c0,2.9-0.1,5.2-0.2,6.9
			c-0.6,13.7-4.2,23.8-10.7,30.3c-6.6,6.5-15.2,9.7-25.9,9.7C384.9,790.8,376.4,787.3,370.3,780.4z M387.8,757.4
			c1.2-1.6,2-4.2,2.3-7.6c0.2-2.3,0.3-4.2,0.3-5.7c0-1.5-0.1-3.4-0.3-5.7c-0.3-3.5-1.1-6-2.3-7.6c-1.2-1.6-3.3-2.4-6.3-2.4
			c-2.9,0-5,0.7-6.3,2.2c-1.3,1.4-2.1,3.6-2.3,6.5c-0.1,1.7-0.2,3.9-0.2,6.4c0,2.5,0.1,4.7,0.2,6.4c0.2,3.3,1,5.9,2.2,7.5
			c1.3,1.7,3.4,2.5,6.4,2.5C384.5,759.8,386.6,759,387.8,757.4z"/>
		<path class="st0" d="M480.8,784.7l-25.3-80.1l-0.2-1.4c0-1.2,0.4-2.1,1.2-2.9c0.8-0.8,1.8-1.2,2.9-1.2h26.6c1.6,0,2.9,0.4,3.9,1.2
			c1,0.8,1.6,1.8,2,2.9l10.6,36l11.2-36c0.3-1.2,1-2.1,2-2.9c1-0.8,2.3-1.2,3.9-1.2h16.1c1.6,0,2.9,0.4,3.9,1.2c1,0.8,1.6,1.8,2,2.9
			l11.2,36l10.6-36c0.3-1.2,1-2.1,2-2.9c1-0.8,2.3-1.2,3.9-1.2H596c1.2,0,2.1,0.4,2.9,1.2c0.8,0.8,1.2,1.8,1.2,2.9l-0.2,1.4
			l-25.3,80.1c-0.9,2.9-2.8,4.3-5.7,4.3h-23.2c-2.9,0-4.8-1.4-5.7-4.3l-12.3-34.9l-12.5,34.9c-0.9,2.9-2.8,4.3-5.7,4.3h-23.2
			C483.6,789.1,481.7,787.6,480.8,784.7z"/>
		<path class="st0" d="M622.6,752.2c-0.1-1.7-0.2-4.4-0.2-8.1c0-3.7,0.1-6.4,0.2-8.1c0.8-12.6,5.6-22.1,14.4-28.7
			c8.8-6.6,20.7-9.9,35.8-9.9c15.1,0,27,3.3,35.8,9.9c8.8,6.6,13.5,16.1,14.4,28.7c0.2,3.5,0.3,6.2,0.3,8.1c0,2-0.1,4.7-0.3,8.1
			c-1.7,25.7-18.4,38.6-50.2,38.6C641.1,790.8,624.4,777.9,622.6,752.2z M678.8,760.6c0.9-1.7,1.5-4.8,1.7-9.3
			c0.1-1.2,0.2-3.6,0.2-7.3c0-3.7-0.1-6.1-0.2-7.3c-0.3-4.4-1-7.4-1.9-9.2c-0.9-1.7-2.9-2.6-5.9-2.6c-3,0-5,0.9-5.9,2.6
			c-0.9,1.7-1.6,4.8-1.9,9.2l-0.2,7.3l0.2,7.3c0.2,4.5,0.8,7.6,1.7,9.3c0.9,1.7,2.9,2.5,6.1,2.5S677.9,762.3,678.8,760.6z"/>
		<path class="st0" d="M754.8,787.7c-0.9-0.9-1.4-2-1.4-3.3v-80.6c0-1.3,0.5-2.4,1.4-3.3c0.9-0.9,2-1.4,3.3-1.4h30.3
			c1.3,0,2.4,0.5,3.3,1.4c0.9,0.9,1.4,2,1.4,3.3v6.1c3.8-3.3,8-6,12.6-7.9c4.6-1.9,9.4-2.9,14.4-2.9h8.3c1.3,0,2.4,0.5,3.3,1.4
			c0.9,0.9,1.4,2,1.4,3.3v27c0,1.3-0.5,2.4-1.4,3.3c-0.9,0.9-2,1.4-3.3,1.4H806c-6.9,0-10.4,3.5-10.4,10.4v38.6
			c0,1.3-0.5,2.4-1.4,3.3c-0.9,0.9-2,1.4-3.3,1.4H758C756.8,789.1,755.7,788.6,754.8,787.7z"/>
		<path class="st0" d="M861.7,787.7c-0.9-0.9-1.4-2-1.4-3.3V670.9c0-1.3,0.5-2.4,1.4-3.3c0.9-0.9,2-1.4,3.3-1.4h30.3
			c1.3,0,2.4,0.5,3.3,1.4c0.9,0.9,1.4,2,1.4,3.3v56l15.2-24.9c1.2-2,2.8-2.9,5-2.9h34.9c1.2,0,2.1,0.4,2.9,1.2
			c0.8,0.8,1.2,1.8,1.2,2.9c0,0.8-0.3,1.7-0.9,2.6l-23.7,33.7l28,43.1c0.5,0.7,0.7,1.4,0.7,2.2c0,1.2-0.4,2.1-1.2,2.9
			c-0.8,0.8-1.8,1.2-2.9,1.2h-36.3c-2.3,0-4.1-1-5.4-2.9l-17.6-29.4v27.7c0,1.3-0.5,2.4-1.4,3.3c-0.9,0.9-2,1.4-3.3,1.4h-30.3
			C863.7,789.1,862.6,788.6,861.7,787.7z"/>
	</g>
</g>
</svg>
